<svg xmlns="http://www.w3.org/2000/svg"><symbol id="abc" xmlns="http://www.w3.org/2000/svg"><path d="M33.35 30q-.75 0-1.225-.475-.475-.475-.475-1.225v-8.6q0-.75.475-1.225Q32.6 18 33.35 18h6.95q.75 0 1.225.475Q42 18.95 42 19.7V22h-2.4v-1.6h-5.55v7.2h5.55V26H42v2.3q0 .75-.475 1.225Q41.05 30 40.3 30ZM19 30V18h8.65q.75 0 1.225.475.475.475.475 1.225v2.6q0 .75-.475 1.225Q28.4 24 27.65 24q.75 0 1.225.475.475.475.475 1.225v2.6q0 .75-.475 1.225Q28.4 30 27.65 30Zm2.4-7.2h5.55v-2.4H21.4Zm0 4.8h5.55v-2.4H21.4ZM6 30V19.7q0-.75.475-1.225Q6.95 18 7.7 18h6.95q.75 0 1.225.475.475.475.475 1.225V30h-2.4v-3.85H8.4V30Zm2.4-6.25h5.55V20.4H8.4Z"/></symbol><symbol id="account" xmlns="http://www.w3.org/2000/svg"><path d="M11.1 35.25q3.15-2.2 6.25-3.375Q20.45 30.7 24 30.7q3.55 0 6.675 1.175t6.275 3.375q2.2-2.7 3.125-5.45Q41 27.05 41 24q0-7.25-4.875-12.125T24 7q-7.25 0-12.125 4.875T7 24q0 3.05.95 5.8t3.15 5.45ZM24 25.5q-2.9 0-4.875-1.975T17.15 18.65q0-2.9 1.975-4.875T24 11.8q2.9 0 4.875 1.975t1.975 4.875q0 2.9-1.975 4.875T24 25.5ZM24 44q-4.1 0-7.75-1.575-3.65-1.575-6.375-4.3-2.725-2.725-4.3-6.375Q4 28.1 4 24q0-4.15 1.575-7.775t4.3-6.35q2.725-2.725 6.375-4.3Q19.9 4 24 4q4.15 0 7.775 1.575t6.35 4.3q2.725 2.725 4.3 6.35Q44 19.85 44 24q0 4.1-1.575 7.75-1.575 3.65-4.3 6.375-2.725 2.725-6.35 4.3Q28.15 44 24 44Zm0-3q2.75 0 5.375-.8t5.175-2.8q-2.55-1.8-5.2-2.75-2.65-.95-5.35-.95-2.7 0-5.35.95-2.65.95-5.2 2.75 2.55 2 5.175 2.8Q21.25 41 24 41Zm0-18.5q1.7 0 2.775-1.075t1.075-2.775q0-1.7-1.075-2.775T24 14.8q-1.7 0-2.775 1.075T20.15 18.65q0 1.7 1.075 2.775T24 22.5Zm0-3.85Zm0 18.7Z"/></symbol><symbol id="add-group" xmlns="http://www.w3.org/2000/svg"><path d="M23.7 23.7q1.3-1.6 1.925-3.3.625-1.7.625-3.95t-.625-3.95Q25 10.8 23.7 9.2q3.8-.85 6.675 1.15t2.875 6.1q0 4.1-2.875 6.1T23.7 23.7ZM34.5 40v-4.7q0-2.55-1.3-4.75t-4.5-3.7q8.65 1.1 11.825 3.2 3.175 2.1 3.175 5.25V40ZM40 25.55v-5h-5v-3h5v-5h3v5h5v3h-5v5Zm-24.25-1.6q-3.3 0-5.4-2.1-2.1-2.1-2.1-5.4 0-3.3 2.1-5.4 2.1-2.1 5.4-2.1 3.3 0 5.4 2.1 2.1 2.1 2.1 5.4 0 3.3-2.1 5.4-2.1 2.1-5.4 2.1ZM0 40v-4.7q0-1.75.925-3.175Q1.85 30.7 3.4 30q3.6-1.6 6.425-2.3 2.825-.7 5.925-.7 3.1 0 5.9.7 2.8.7 6.4 2.3 1.55.7 2.5 2.125t.95 3.175V40Zm15.75-19.05q1.95 0 3.225-1.275Q20.25 18.4 20.25 16.45q0-1.95-1.275-3.225Q17.7 11.95 15.75 11.95q-1.95 0-3.225 1.275Q11.25 14.5 11.25 16.45q0 1.95 1.275 3.225Q13.8 20.95 15.75 20.95ZM3 37h25.5v-1.7q0-.8-.4-1.5t-1.25-1.1Q23.4 31.1 21 30.55 18.6 30 15.75 30t-5.225.55Q8.15 31.1 4.6 32.7q-.75.35-1.175 1.075Q3 34.5 3 35.3Zm12.75-20.55Zm0 20.55Z"/></symbol><symbol id="add-person" xmlns="http://www.w3.org/2000/svg"><path d="M36.5 28v-6.5H30v-3h6.5V12h3v6.5H46v3h-6.5V28ZM18 23.95q-3.3 0-5.4-2.1-2.1-2.1-2.1-5.4 0-3.3 2.1-5.4 2.1-2.1 5.4-2.1 3.3 0 5.4 2.1 2.1 2.1 2.1 5.4 0 3.3-2.1 5.4-2.1 2.1-5.4 2.1ZM2 40v-4.7q0-1.75.9-3.175Q3.8 30.7 5.4 30q3.75-1.65 6.675-2.325Q15 27 18 27t5.925.675Q26.85 28.35 30.55 30q1.6.75 2.525 2.15.925 1.4.925 3.15V40Zm3-3h26v-1.7q0-.8-.4-1.525-.4-.725-1.25-1.075-3.5-1.7-5.975-2.2Q20.9 30 18 30t-5.375.525Q10.15 31.05 6.6 32.7q-.75.35-1.175 1.075Q5 34.5 5 35.3Zm13-16.05q1.95 0 3.225-1.275Q22.5 18.4 22.5 16.45q0-1.95-1.275-3.225Q19.95 11.95 18 11.95q-1.95 0-3.225 1.275Q13.5 14.5 13.5 16.45q0 1.95 1.275 3.225Q16.05 20.95 18 20.95Zm0-4.5ZM18 30Z"/></symbol><symbol id="add" xmlns="http://www.w3.org/2000/svg"><path d="M22.5 38V25.5H10v-3h12.5V10h3v12.5H38v3H25.5V38Z"/></symbol><symbol id="arrow-drop-down" xmlns="http://www.w3.org/2000/svg"><path d="m24 30-10-9.95h20Z"/></symbol><symbol id="arrow-drop-up" xmlns="http://www.w3.org/2000/svg"><path d="m14 28 10-10.05L34 28Z"/></symbol><symbol id="attach" xmlns="http://www.w3.org/2000/svg"><path d="M14.9 35h21.4v-2H14.85q-3.7 0-6.275-2.625T6 24q0-3.7 2.525-6.35Q11.05 15 14.7 15h21.6q2.4 0 4.05 1.675T42 20.75q0 2.4-1.65 4.075Q38.7 26.5 36.3 26.5H16.55q-1.05 0-1.8-.725T14 24q0-1.05.775-1.775.775-.725 1.825-.725h19.7v-2H16.65q-1.9 0-3.275 1.3T12 24q0 1.9 1.325 3.2 1.325 1.3 3.225 1.3H36.3q3.2 0 5.45-2.275T44 20.75q0-3.2-2.25-5.475Q39.5 13 36.3 13H14.8q-4.55 0-7.675 3.225T4 24q0 4.55 3.175 7.775Q10.35 35 14.9 35Z"/></symbol><symbol id="backward" xmlns="http://www.w3.org/2000/svg"><path d="m22.65 35.95-12-12 12-12 2.1 2.1-9.9 9.9 9.9 9.9Zm12.65 0-12-12 12-12 2.1 2.1-9.9 9.9 9.9 9.9Z"/></symbol><symbol id="bee" xmlns="http://www.w3.org/2000/svg"><path d="m36.15 17.45-1.9 1.7q-.55.5-1.4.575-.85.075-1.55-.425-.7-.5-.825-1.35-.125-.85.075-1.5l.85-2.9-2.15-1.2q-.7-.4-.9-1.125-.2-.725.05-1.525.25-.8.85-1.2.6-.4 1.45-.4h2.45l.75-2.25q.25-.75.825-1.325t1.425-.575q.85 0 1.425.575.575.575.825 1.325l.75 2.25h2.45q.75 0 1.4.425.65.425.9 1.175.25.7.05 1.475-.2.775-.95 1.175l-2.15 1.2.85 2.9q.25.7.125 1.525T41 19.3q-.7.45-1.55.4-.85-.05-1.4-.55Zm0-3q.85 0 1.425-.575.575-.575.575-1.425 0-.85-.575-1.425-.575-.575-1.425-.575-.85 0-1.425.575-.575.575-.575 1.425 0 .85.575 1.425.575.575 1.425.575Zm-9.7 22q1.1 2.7-.775 5.125T20.75 44q-1.6 0-2.9-.775-1.3-.775-2.05-2.375-3.35.35-6.1-2.375Q6.95 35.75 7.15 32.4q-1.5-.8-2.325-2.425Q4 28.35 4 26.9q0-3.35 2.35-4.975Q8.7 20.3 12 21.75l3 1.2q.85-1.85 2.475-2.875t3.575-1.125v-4.3h2.45v4.5q2.05.4 3.6 2.15 1.55 1.75 1.9 3.35h4.5v2.5h-4.3q-.15 1.95-1.15 3.575-1 1.625-2.85 2.475ZM14.9 37.9q-.15-1.35.1-2.775.25-1.425.75-2.775-1.35.7-2.775.85-1.425.15-2.875-.05.1 1.65 1.65 3.2 1.55 1.55 3.15 1.55Zm-3.7-7.65q2 0 4.225-1.075Q17.65 28.1 18.4 27.6l-7.1-2.9q-1.25-.55-2.775.125T7 26.8q0 1.3 1.675 2.375T11.2 30.25ZM20.75 41q1.55 0 2.475-1.025t.375-2.425l-3-7.75q-.9 1.45-1.8 3.075-.9 1.625-.9 4.125 0 1 .725 2.5T20.75 41ZM24 30.4q1.3-.75 1.75-1.8.45-1.05.45-2.25 0-1.75-1.275-3.025T21.9 22.05q-1.2 0-2.325.55-1.125.55-1.675 1.8l4.35 1.7Zm-8.25 1.95Z"/></symbol><symbol id="caption" xmlns="http://www.w3.org/2000/svg"><path d="M9 40q-1.2 0-2.1-.9Q6 38.2 6 37V11q0-1.2.9-2.1Q7.8 8 9 8h30q1.2 0 2.1.9.9.9.9 2.1v26q0 1.2-.9 2.1-.9.9-2.1.9Zm0-3h30V11H9v26Zm4.5-7.05h7.1q.65 0 1.075-.425.425-.425.425-1.075v-2.1h-2.5v1.1h-5.1v-6.9h5.1v1.1h2.5v-2.1q0-.65-.425-1.075-.425-.425-1.075-.425h-7.1q-.65 0-1.075.425Q12 18.9 12 19.55v8.9q0 .65.425 1.075.425.425 1.075.425Zm13.95 0h7.1q.6 0 1.05-.45.45-.45.45-1.05v-2.1h-2.5v1.1h-5.1v-6.9h5.1v1.1h2.5v-2.1q0-.6-.45-1.05-.45-.45-1.05-.45h-7.1q-.6 0-1.05.45-.45.45-.45 1.05v8.9q0 .6.45 1.05.45.45 1.05.45ZM9 37V11v26Z"/></symbol><symbol id="cart" xmlns="http://www.w3.org/2000/svg"><path d="M14.35 43.95q-1.5 0-2.55-1.05-1.05-1.05-1.05-2.55 0-1.5 1.05-2.55 1.05-1.05 2.55-1.05 1.45 0 2.525 1.05t1.075 2.55q0 1.5-1.05 2.55-1.05 1.05-2.55 1.05Zm20 0q-1.5 0-2.55-1.05-1.05-1.05-1.05-2.55 0-1.5 1.05-2.55 1.05-1.05 2.55-1.05 1.45 0 2.525 1.05t1.075 2.55q0 1.5-1.05 2.55-1.05 1.05-2.55 1.05Zm-22.6-33 5.5 11.4h14.4l6.25-11.4Zm-1.5-3H39.7q1.6 0 2.025.975.425.975-.275 2.175L34.7 23.25q-.5.85-1.4 1.475-.9.625-1.95.625H16.2l-2.8 5.2h24.55v3h-24.1q-2.1 0-3.025-1.4-.925-1.4.025-3.15l3.2-5.9L6.45 7h-3.9V4H8.4Zm7 14.4h14.4Z"/></symbol><symbol id="chat" xmlns="http://www.w3.org/2000/svg"><path d="M12 28.05h15.65v-3H12Zm0-6.5h24v-3H12Zm0-6.5h24v-3H12ZM4 44V7q0-1.15.9-2.075Q5.8 4 7 4h34q1.15 0 2.075.925Q44 5.85 44 7v26q0 1.15-.925 2.075Q42.15 36 41 36H12Zm3-7.25L10.75 33H41V7H7ZM7 7v29.75Z"/></symbol><symbol id="check-circle" xmlns="http://www.w3.org/2000/svg"><path d="M21.05 33.1 35.2 18.95l-2.3-2.25-11.85 11.85-6-6-2.25 2.25ZM24 44q-4.1 0-7.75-1.575-3.65-1.575-6.375-4.3-2.725-2.725-4.3-6.375Q4 28.1 4 24q0-4.15 1.575-7.8 1.575-3.65 4.3-6.35 2.725-2.7 6.375-4.275Q19.9 4 24 4q4.15 0 7.8 1.575 3.65 1.575 6.35 4.275 2.7 2.7 4.275 6.35Q44 19.85 44 24q0 4.1-1.575 7.75-1.575 3.65-4.275 6.375t-6.35 4.3Q28.15 44 24 44Zm0-3q7.1 0 12.05-4.975Q41 31.05 41 24q0-7.1-4.95-12.05Q31.1 7 24 7q-7.05 0-12.025 4.95Q7 16.9 7 24q0 7.05 4.975 12.025Q16.95 41 24 41Zm0-17Z"/></symbol><symbol id="close" xmlns="http://www.w3.org/2000/svg"><path d="m12.45 37.65-2.1-2.1L21.9 24 10.35 12.45l2.1-2.1L24 21.9l11.55-11.55 2.1 2.1L26.1 24l11.55 11.55-2.1 2.1L24 26.1Z"/></symbol><symbol id="cloud" xmlns="http://www.w3.org/2000/svg"><path d="M12.55 40q-4.4 0-7.475-3.075Q2 33.85 2 29.45q0-3.9 2.5-6.85 2.5-2.95 6.35-3.55 1-4.85 4.7-7.925T24.1 8.05q5.6 0 9.45 4.075Q37.4 16.2 37.4 21.9v1.2q3.6-.1 6.1 2.325Q46 27.85 46 31.55q0 3.45-2.5 5.95T37.55 40Zm0-3h25q2.25 0 3.85-1.6t1.6-3.85q0-2.25-1.6-3.85t-3.85-1.6H34.4v-4.2q0-4.55-3.05-7.7-3.05-3.15-7.45-3.15t-7.475 3.15q-3.075 3.15-3.075 7.7h-.95q-3.1 0-5.25 2.175T5 29.45q0 3.15 2.2 5.35Q9.4 37 12.55 37ZM24 24Z"/></symbol><symbol id="cloudy" xmlns="http://www.w3.org/2000/svg"><path d="M24 9.5q-.65 0-1.075-.425Q22.5 8.65 22.5 8V3.5q0-.65.425-1.075Q23.35 2 24 2q.65 0 1.075.425.425.425.425 1.075V8q0 .65-.425 1.075Q24.65 9.5 24 9.5Zm10.25 4.25q-.45-.45-.45-1.075t.45-1.075l3.15-3.15q.5-.5 1.1-.475.6.025 1.05.475.45.45.45 1.05 0 .6-.45 1.05l-3.2 3.2q-.45.45-1.05.45-.6 0-1.05-.45ZM40 25.5q-.65 0-1.075-.425Q38.5 24.65 38.5 24q0-.65.425-1.075Q39.35 22.5 40 22.5h4.5q.65 0 1.075.425Q46 23.35 46 24q0 .65-.425 1.075-.425.425-1.075.425Zm-2.55 14.05L34.3 36.4q-.45-.45-.45-1.075t.45-1.075q.45-.45 1.075-.45t1.075.45l3.15 3.15q.5.5.475 1.1-.025.6-.475 1.05-.45.45-1.05.475-.6.025-1.1-.475Zm-25.8-25.8-3.2-3.2Q8 10.1 8 9.5q0-.6.45-1.05.45-.45 1.025-.475.575-.025 1.075.475l3.2 3.2q.45.45.45 1.05 0 .6-.45 1.05-.45.45-1.05.45-.6 0-1.05-.45ZM12 42q-4.25 0-7.125-2.875T2 32q0-4.15 2.95-7.075T12 22H12.15q.7-4.3 4.05-7.15Q19.55 12 24 12q5 0 8.5 3.5T36 24q0 3.75-2.175 6.9-2.175 3.15-5.925 4.45-.25 2.5-2.25 4.575T21 42Zm0-3h9q1.8 0 2.9-1.1Q25 36.8 25 35q0-1.8-1.1-2.925-1.1-1.125-2.85-1.125h-2.2l-.9-2.05q-.75-1.8-2.375-2.85T12 25q-2.85 0-4.925 2.075Q5 29.15 5 32q0 2.95 2.025 4.975Q9.05 39 12 39Zm15.45-6.7q2.55-1 4.05-3.3t1.5-5q0-3.75-2.625-6.375T24 15q-3.25 0-5.825 2.1t-3.025 5.4q1.95.85 3.4 2.25t2.25 3.2q2.05 0 3.875 1.25 1.825 1.25 2.775 3.1Z"/></symbol><symbol id="co2" xmlns="http://www.w3.org/2000/svg"><path d="M22 29.7q-.7 0-1.2-.5t-.5-1.2v-8q0-.7.5-1.2t1.2-.5h6q.7 0 1.2.5t.5 1.2v8q0 .7-.5 1.2t-1.2.5Zm.7-2.4h4.6v-6.6h-4.6ZM8 29.7q-.7 0-1.2-.5T6.3 28v-8q0-.7.5-1.2t1.2-.5h6q.7 0 1.2.5t.5 1.2v1.7h-2.4v-1H8.7v6.6h4.6v-1h2.4V28q0 .7-.5 1.2t-1.2.5Zm26.3 6V31q0-.7.5-1.2t1.2-.5h4.3v-2.6h-6v-2.4H41q.7 0 1.2.5t.5 1.2v3q0 .7-.5 1.2t-1.2.5h-4.3v2.6h6v2.4Z"/></symbol><symbol id="coin" xmlns="http://www.w3.org/2000/svg"><path d="M22.55 38.35h2.75v-2.6q3.05-.35 4.75-1.875 1.7-1.525 1.7-4.075 0-2.55-1.45-4.15-1.45-1.6-4.9-3.05-2.9-1.2-4.2-2.15-1.3-.95-1.3-2.55 0-1.55 1.125-2.45 1.125-.9 3.075-.9 1.5 0 2.6.7t1.85 2.1l2.4-1.15q-.85-1.75-2.25-2.75t-3.3-1.2V9.7h-2.75v2.55q-2.55.35-4.025 1.875Q17.15 15.65 17.15 17.9q0 2.45 1.5 3.9 1.5 1.45 4.5 2.7 3.35 1.4 4.6 2.525Q29 28.15 29 29.8q0 1.6-1.325 2.575-1.325.975-3.325.975-1.95 0-3.475-1.1-1.525-1.1-2.125-3l-2.55.85q1.05 2.3 2.575 3.625Q20.3 35.05 22.55 35.65ZM24 44q-4.1 0-7.75-1.575-3.65-1.575-6.375-4.3-2.725-2.725-4.3-6.375Q4 28.1 4 24q0-4.15 1.575-7.8 1.575-3.65 4.3-6.35 2.725-2.7 6.375-4.275Q19.9 4 24 4q4.15 0 7.8 1.575 3.65 1.575 6.35 4.275 2.7 2.7 4.275 6.35Q44 19.85 44 24q0 4.1-1.575 7.75-1.575 3.65-4.275 6.375t-6.35 4.3Q28.15 44 24 44Zm0-3q7.1 0 12.05-4.975Q41 31.05 41 24q0-7.1-4.95-12.05Q31.1 7 24 7q-7.05 0-12.025 4.95Q7 16.9 7 24q0 7.05 4.975 12.025Q16.95 41 24 41Zm0-17Z"/></symbol><symbol id="css" xmlns="http://www.w3.org/2000/svg"><path d="M20.7 30q-.75 0-1.225-.475Q19 29.05 19 28.3V26h2.4v1.6h5.2v-2.65h-5.9q-.7 0-1.2-.5t-.5-1.2V19.7q0-.75.475-1.225Q19.95 18 20.7 18h6.6q.75 0 1.225.475Q29 18.95 29 19.7V22h-2.4v-1.6h-5.2v2.65h5.9q.7 0 1.2.5t.5 1.2v3.55q0 .75-.475 1.225Q28.05 30 27.3 30Zm13 0q-.75 0-1.225-.475Q32 29.05 32 28.3V26h2.4v1.6h5.2v-2.65h-5.9q-.7 0-1.2-.5t-.5-1.2V19.7q0-.75.475-1.225Q32.95 18 33.7 18h6.6q.75 0 1.225.475Q42 18.95 42 19.7V22h-2.4v-1.6h-5.2v2.65h5.9q.7 0 1.2.5t.5 1.2v3.55q0 .75-.475 1.225Q41.05 30 40.3 30Zm-26 0q-.75 0-1.225-.475Q6 29.05 6 28.3v-8.6q0-.75.475-1.225Q6.95 18 7.7 18h6.6q.75 0 1.225.475Q16 18.95 16 19.7V22h-2.4v-1.6H8.4v7.2h5.2V26H16v2.3q0 .75-.475 1.225Q15.05 30 14.3 30Z"/></symbol><symbol id="danger" xmlns="http://www.w3.org/2000/svg"><path d="M16.5 42 6 31.5v-15L16.5 6h15L42 16.5v15L31.5 42Zm1.25-3h12.5L39 30.25v-12.5L30.25 9h-12.5L9 17.75v12.5Zm.1-6.75L24 26.1l6.15 6.15 2.1-2.1L26.1 24l6.15-6.15-2.1-2.1L24 21.9l-6.15-6.15-2.1 2.1L21.9 24l-6.15 6.15ZM24 24Z"/></symbol><symbol id="data" xmlns="http://www.w3.org/2000/svg"><path d="M28.5 40v-3h6q1.05 0 1.775-.725Q37 35.55 37 34.5v-5q0-1.85 1.125-3.3 1.125-1.45 2.875-2v-.4q-1.75-.5-2.875-1.975T37 18.5v-5q0-1.05-.725-1.775Q35.55 11 34.5 11h-6V8h6q2.3 0 3.9 1.6t1.6 3.9v5q0 1.05.725 1.775Q41.45 21 42.5 21H44v6h-1.5q-1.05 0-1.775.725Q40 28.45 40 29.5v5q0 2.3-1.6 3.9T34.5 40Zm-15 0q-2.3 0-3.9-1.6T8 34.5v-5q0-1.05-.725-1.775Q6.55 27 5.5 27H4v-6h1.5q1.05 0 1.775-.725Q8 19.55 8 18.5v-5q0-2.3 1.6-3.9T13.5 8h6v3h-6q-1.05 0-1.775.725Q11 12.45 11 13.5v5q0 1.85-1.125 3.325T7 23.8v.4q1.75.55 2.875 2T11 29.5v5q0 1.05.725 1.775Q12.45 37 13.5 37h6v3Z"/></symbol><symbol id="delete" xmlns="http://www.w3.org/2000/svg"><path d="M13.05 42q-1.2 0-2.1-.9-.9-.9-.9-2.1V10.5H8v-3h9.4V6h13.2v1.5H40v3h-2.05V39q0 1.2-.9 2.1-.9.9-2.1.9Zm21.9-31.5h-21.9V39h21.9Zm-16.6 24.2h3V14.75h-3Zm8.3 0h3V14.75h-3Zm-13.6-24.2V39Z"/></symbol><symbol id="done" xmlns="http://www.w3.org/2000/svg"><path d="M18.9 35.7 7.7 24.5l2.15-2.15 9.05 9.05 19.2-19.2 2.15 2.15Z"/></symbol><symbol id="download" xmlns="http://www.w3.org/2000/svg"><path d="M11 40q-1.2 0-2.1-.9Q8 38.2 8 37v-7.15h3V37h26v-7.15h3V37q0 1.2-.9 2.1-.9.9-2.1.9Zm13-7.65-9.65-9.65 2.15-2.15 6 6V8h3v18.55l6-6 2.15 2.15Z"/></symbol><symbol id="eco" xmlns="http://www.w3.org/2000/svg"><path d="M10.65 39.25q-2.2-2.25-3.425-5.2Q6 31.1 6 28q0-3.65 1.275-6.675T11.1 15.75q1.75-1.75 4.35-2.95 2.6-1.2 6.125-1.875t7.975-.85q4.45-.175 9.9.175.4 5.4.275 9.875t-.8 8.025q-.675 3.55-1.9 6.225Q35.8 37.05 34 38.85q-2.55 2.55-5.5 3.85-2.95 1.3-6.3 1.3-3.45 0-6.325-1.175T10.65 39.25Zm5.15 0q1.25.85 2.9 1.3 1.65.45 3.5.45 2.65 0 5.15-1.1 2.5-1.1 4.55-3.2 1.35-1.35 2.3-3.525.95-2.175 1.55-5.15.6-2.975.8-6.725.2-3.75 0-8.25-4.7-.1-8.425.125Q24.4 13.4 21.55 14t-4.9 1.525q-2.05.925-3.35 2.275-2.1 2.15-3.2 4.55T9 27.25q0 2.4 1.025 5.025Q11.05 34.9 12.55 36.5q2.65-4.9 6.35-8.8 3.7-3.9 7.85-6.15-4.35 3.75-7.05 8.125t-3.9 9.575Zm0 0Zm0 0Z"/></symbol><symbol id="edit" xmlns="http://www.w3.org/2000/svg"><path d="M9 39h2.2l22.15-22.15-2.2-2.2L9 36.8Zm30.7-24.3-6.4-6.4 2.1-2.1q.85-.85 2.1-.85t2.1.85l2.2 2.2q.85.85.85 2.1t-.85 2.1Zm-2.1 2.1L12.4 42H6v-6.4l25.2-25.2Zm-5.35-1.05-1.1-1.1 2.2 2.2Z"/></symbol><symbol id="error" xmlns="http://www.w3.org/2000/svg"><path d="M24 34q.7 0 1.175-.475.475-.475.475-1.175 0-.7-.475-1.175Q24.7 30.7 24 30.7q-.7 0-1.175.475-.475.475-.475 1.175 0 .7.475 1.175Q23.3 34 24 34Zm-1.35-7.65h3V13.7h-3ZM24 44q-4.1 0-7.75-1.575-3.65-1.575-6.375-4.3-2.725-2.725-4.3-6.375Q4 28.1 4 23.95q0-4.1 1.575-7.75 1.575-3.65 4.3-6.35 2.725-2.7 6.375-4.275Q19.9 4 24.05 4q4.1 0 7.75 1.575 3.65 1.575 6.35 4.275 2.7 2.7 4.275 6.35Q44 19.85 44 24q0 4.1-1.575 7.75-1.575 3.65-4.275 6.375t-6.35 4.3Q28.15 44 24 44Zm.05-3q7.05 0 12-4.975T41 23.95q0-7.05-4.95-12T24 7q-7.05 0-12.025 4.95Q7 16.9 7 24q0 7.05 4.975 12.025Q16.95 41 24.05 41ZM24 24Z"/></symbol><symbol id="expand-left" xmlns="http://www.w3.org/2000/svg"><path d="M28.05 36 16 23.95 28.05 11.9l2.15 2.15-9.9 9.9 9.9 9.9Z"/></symbol><symbol id="expand-less" xmlns="http://www.w3.org/2000/svg"><path d="M14.15 30.75 12 28.6l12-12 12 11.95-2.15 2.15L24 20.85Z"/></symbol><symbol id="expand-more" xmlns="http://www.w3.org/2000/svg"><path d="m24 30.75-12-12 2.15-2.15L24 26.5l9.85-9.85L36 18.8Z"/></symbol><symbol id="expand-right" xmlns="http://www.w3.org/2000/svg"><path d="m18.75 36-2.15-2.15 9.9-9.9-9.9-9.9 2.15-2.15L30.8 23.95Z"/></symbol><symbol id="favorite" xmlns="http://www.w3.org/2000/svg"><path d="m24 41.95-2.05-1.85q-5.3-4.85-8.75-8.375-3.45-3.525-5.5-6.3T4.825 20.4Q4 18.15 4 15.85q0-4.5 3.025-7.525Q10.05 5.3 14.5 5.3q2.85 0 5.275 1.35Q22.2 8 24 10.55q2.1-2.7 4.45-3.975T33.5 5.3q4.45 0 7.475 3.025Q44 11.35 44 15.85q0 2.3-.825 4.55T40.3 25.425q-2.05 2.775-5.5 6.3T26.05 40.1ZM24 38q5.05-4.65 8.325-7.975 3.275-3.325 5.2-5.825 1.925-2.5 2.7-4.45.775-1.95.775-3.9 0-3.3-2.1-5.425T33.5 8.3q-2.55 0-4.75 1.575T25.2 14.3h-2.45q-1.3-2.8-3.5-4.4-2.2-1.6-4.75-1.6-3.3 0-5.4 2.125Q7 12.55 7 15.85q0 1.95.775 3.925.775 1.975 2.7 4.5Q12.4 26.8 15.7 30.1 19 33.4 24 38Zm0-14.85Z"/></symbol><symbol id="food" xmlns="http://www.w3.org/2000/svg"><path d="M35 44V28h-5.75V12.75q0-3.95 2.4-6.35Q34.05 4 38 4v40Zm-20.75 0V25.6q-2.6-.55-4.425-2.625Q8 20.9 8 18V4h3v14h3.25V4h3v14h3.25V4h3v14q0 2.9-1.825 4.975Q19.85 25.05 17.25 25.6V44Z"/></symbol><symbol id="forest" xmlns="http://www.w3.org/2000/svg"><path d="M15.15 44v-7.45H0l9.45-13.7H4.7L18 4l6 8.5L30 4l13.3 18.85h-4.7l9.4 13.7H32.9V44h-5.75v-7.45H20.9V44ZM34 33.55h8.25l-9.45-13.7h4.45L30 9.55l-4 5.75 5.3 7.55h-4.7Zm-28.2 0h24.45l-9.45-13.7h4.45L18 9.55l-7.25 10.3h4.5Zm0 0h9.45-4.5 14.5-4.45 9.45Zm28.2 0h-7.4 4.7H26h11.25-4.45 9.45Zm-6.85 3h5.75-5.75Zm8.9 0Z"/></symbol><symbol id="forward" xmlns="http://www.w3.org/2000/svg"><path d="m12.75 35.95-2.1-2.1 9.9-9.9-9.9-9.9 2.1-2.1 12 12Zm12.65 0-2.1-2.1 9.9-9.9-9.9-9.9 2.1-2.1 12 12Z"/></symbol><symbol id="fullscreen" xmlns="http://www.w3.org/2000/svg"><path d="M10 38v-9.65h3V35h6.65v3Zm0-18.35V10h9.65v3H13v6.65ZM28.35 38v-3H35v-6.65h3V38ZM35 19.65V13h-6.65v-3H38v9.65Z"/></symbol><symbol id="group" xmlns="http://www.w3.org/2000/svg"><path d="M1.9 40v-4.7q0-1.75.9-3.175Q3.7 30.7 5.3 30q3.65-1.6 6.575-2.3Q14.8 27 17.9 27q3.1 0 6 .7t6.55 2.3q1.6.7 2.525 2.125.925 1.425.925 3.175V40Zm35 0v-4.7q0-3.15-1.6-5.175t-4.2-3.275q3.45.4 6.5 1.175t4.95 1.775q1.65.95 2.6 2.35.95 1.4.95 3.15V40Zm-19-16.05q-3.3 0-5.4-2.1-2.1-2.1-2.1-5.4 0-3.3 2.1-5.4 2.1-2.1 5.4-2.1 3.3 0 5.4 2.1 2.1 2.1 2.1 5.4 0 3.3-2.1 5.4-2.1 2.1-5.4 2.1Zm18-7.5q0 3.3-2.1 5.4-2.1 2.1-5.4 2.1-.55 0-1.225-.075T25.95 23.6q1.2-1.25 1.825-3.075.625-1.825.625-4.075t-.625-3.975Q27.15 10.75 25.95 9.3q.55-.15 1.225-.25t1.225-.1q3.3 0 5.4 2.1 2.1 2.1 2.1 5.4ZM4.9 37h26v-1.7q0-.8-.475-1.55T29.25 32.7q-3.6-1.6-6.05-2.15-2.45-.55-5.3-.55-2.85 0-5.325.55T6.5 32.7q-.7.3-1.15 1.05-.45.75-.45 1.55Zm13-16.05q1.95 0 3.225-1.275Q22.4 18.4 22.4 16.45q0-1.95-1.275-3.225Q19.85 11.95 17.9 11.95q-1.95 0-3.225 1.275Q13.4 14.5 13.4 16.45q0 1.95 1.275 3.225Q15.95 20.95 17.9 20.95Zm0 16.05Zm0-20.55Z"/></symbol><symbol id="hd" xmlns="http://www.w3.org/2000/svg"><path d="M12 30.15h2.5V25.7h5v4.45H22v-12.3h-2.5v5.35h-5v-5.35H12Zm14 0h7.5q1 0 1.75-.75t.75-1.75v-7.3q0-1-.75-1.75t-1.75-.75H26Zm2.5-2.5v-7.3h5v7.3ZM7 40q-1.2 0-2.1-.9Q4 38.2 4 37V11q0-1.2.9-2.1Q5.8 8 7 8h34q1.2 0 2.1.9.9.9.9 2.1v26q0 1.2-.9 2.1-.9.9-2.1.9Zm0-3h34V11H7v26Zm0 0V11v26Z"/></symbol><symbol id="headphones" xmlns="http://www.w3.org/2000/svg"><path d="M16.4 42H9q-1.2 0-2.1-.9Q6 40.2 6 39V24q0-3.75 1.425-7.025 1.425-3.275 3.85-5.7 2.425-2.425 5.7-3.85Q20.25 6 24 6q3.75 0 7.025 1.425 3.275 1.425 5.7 3.85 2.425 2.425 3.85 5.7Q42 20.25 42 24v15q0 1.2-.9 2.1-.9.9-2.1.9h-7.4V27.2H39V24q0-6.25-4.375-10.625T24 9q-6.25 0-10.625 4.375T9 24v3.2h7.4Zm-3-11.8H9V39h4.4Zm21.2 0V39H39v-8.8Zm0 0H39h-4.4Zm-21.2 0H9Z"/></symbol><symbol id="headset" xmlns="http://www.w3.org/2000/svg"><path d="M24.1 46v-3H39v-2.7h-7.4V25.5H39v-3.4q0-6.2-4.35-10.675Q30.3 6.95 24.1 6.95q-6.2 0-10.65 4.475T9 22.1v3.4h7.4v14.8H9q-1.2 0-2.1-.9-.9-.9-.9-2.1V22.1q0-3.75 1.425-7.05T11.3 9.275q2.45-2.475 5.75-3.9 3.3-1.425 7.05-1.425t7.025 1.425Q34.4 6.8 36.8 9.275q2.4 2.475 3.8 5.775 1.4 3.3 1.4 7.05V43q0 1.2-.9 2.1-.9.9-2.1.9ZM9 37.3h4.4v-8.8H9v8.8Zm25.6 0H39v-8.8h-4.4Zm4.4 0h-4.4H39Zm-25.6 0H9h4.4Z"/></symbol><symbol id="home" xmlns="http://www.w3.org/2000/svg"><path d="M8 42V18L24.1 6 40 18v24H28.3V27.75h-8.65V42Zm3-3h5.65V24.75H31.3V39H37V19.5L24.1 9.75 11 19.5Zm13-14.65Z"/></symbol><symbol id="html" xmlns="http://www.w3.org/2000/svg"><path d="M0 30V18h2.4v4.45h5.4V18h2.4v12H7.8v-5.15H2.4V30Zm15.8 0v-9.6h-3.5V18h9.4v2.4h-3.5V30Zm24.3 0V18h2.4v9.6H48V30Zm-16.3 0V19.7q0-.75.475-1.225Q24.75 18 25.5 18h10q.75 0 1.225.475.475.475.475 1.225V30h-2.4v-9.6h-3.1v7.5h-2.4v-7.5h-3.1V30Z"/></symbol><symbol id="infinite" xmlns="http://www.w3.org/2000/svg"><path d="M10.6 35q-4.5 0-7.55-3.275T0 23.9q0-4.5 3.075-7.7T10.6 13q1.8 0 3.475.6t2.975 1.85l4.65 4.5-2.1 2.1-4.45-4.35q-.9-.9-2.075-1.3Q11.9 16 10.6 16q-3.2 0-5.4 2.325T3 23.9q0 3.3 2.175 5.7Q7.35 32 10.6 32q1.25 0 2.425-.4 1.175-.4 2.125-1.25l15.8-14.9q1.3-1.25 2.975-1.85Q35.6 13 37.35 13q4.5 0 7.575 3.2T48 23.9q0 4.55-3.075 7.825Q41.85 35 37.35 35q-1.75 0-3.45-.575-1.7-.575-2.95-1.825l-4.55-4.5 2.1-2.1 4.35 4.35q.85.85 2.05 1.25 1.2.4 2.45.4 3.25 0 5.45-2.4t2.2-5.7q0-3.25-2.225-5.575T37.35 16q-1.25 0-2.425.45-1.175.45-2.075 1.3l-15.8 14.9q-1.3 1.2-3 1.775T10.6 35Z"/></symbol><symbol id="js" xmlns="http://www.w3.org/2000/svg"><path d="M25.7 30q-.75 0-1.225-.475Q24 29.05 24 28.3V26h2.4v1.6h5.2v-2.65h-5.9q-.7 0-1.2-.5t-.5-1.2V19.7q0-.75.475-1.225Q24.95 18 25.7 18h6.6q.75 0 1.225.475Q34 18.95 34 19.7V22h-2.4v-1.6h-5.2v2.65h5.9q.7 0 1.2.5t.5 1.2v3.55q0 .75-.475 1.225Q33.05 30 32.3 30Zm-12 0q-.75 0-1.225-.475Q12 29.05 12 28.3V25h2.4v2.6h4.2V18H21v10.3q0 .75-.475 1.225Q20.05 30 19.3 30Z"/></symbol><symbol id="key" xmlns="http://www.w3.org/2000/svg"><path d="M14 27.4q-1.4 0-2.4-1t-1-2.4q0-1.4 1-2.4t2.4-1q1.4 0 2.4 1t1 2.4q0 1.4-1 2.4t-2.4 1Zm0 8.6q-5 0-8.5-3.5T2 24q0-5 3.5-8.5T14 12q3.6 0 6.3 1.7 2.7 1.7 4.25 5.15h17.8L48 24.5l-8.35 7.65-4.4-3.2-4.4 3.2-3.75-3h-2.55q-1.25 3-3.925 4.925Q17.95 36 14 36Zm0-3q2.9 0 5.35-1.925 2.45-1.925 3.15-4.925h5.7l2.7 2.25 4.4-3.15 4.1 3.1 4.25-3.95-2.55-2.55H22.5q-.6-2.8-3-4.825Q17.1 15 14 15q-3.75 0-6.375 2.625T5 24q0 3.75 2.625 6.375T14 33Z"/></symbol><symbol id="login" xmlns="http://www.w3.org/2000/svg"><path d="M24.45 42v-3H39V9H24.45V6H39q1.2 0 2.1.9.9.9.9 2.1v30q0 1.2-.9 2.1-.9.9-2.1.9Zm-3.9-9.25L18.4 30.6l5.1-5.1H6v-3h17.4l-5.1-5.1 2.15-2.15 8.8 8.8Z"/></symbol><symbol id="logout" xmlns="http://www.w3.org/2000/svg"><path d="M9 42q-1.2 0-2.1-.9Q6 40.2 6 39V9q0-1.2.9-2.1Q7.8 6 9 6h14.55v3H9v30h14.55v3Zm24.3-9.25-2.15-2.15 5.1-5.1h-17.5v-3h17.4l-5.1-5.1 2.15-2.15 8.8 8.8Z"/></symbol><symbol id="mail" xmlns="http://www.w3.org/2000/svg"><path d="M7 40q-1.2 0-2.1-.9Q4 38.2 4 37V11q0-1.2.9-2.1Q5.8 8 7 8h34q1.2 0 2.1.9.9.9.9 2.1v26q0 1.2-.9 2.1-.9.9-2.1.9Zm17-15.1L7 13.75V37h34V13.75Zm0-3L40.8 11H7.25ZM7 13.75V11v26Z"/></symbol><symbol id="menu-3-dots" xmlns="http://www.w3.org/2000/svg"><path d="M24 40q-1 0-1.7-.7t-.7-1.7q0-1 .7-1.7t1.7-.7q1 0 1.7.7t.7 1.7q0 1-.7 1.7T24 40Zm0-13.6q-1 0-1.7-.7t-.7-1.7q0-1 .7-1.7t1.7-.7q1 0 1.7.7t.7 1.7q0 1-.7 1.7t-1.7.7Zm0-13.6q-1 0-1.7-.7t-.7-1.7q0-1 .7-1.7T24 8q1 0 1.7.7t.7 1.7q0 1-.7 1.7t-1.7.7Z"/></symbol><symbol id="menu" xmlns="http://www.w3.org/2000/svg"><path d="M6 36v-3h36v3Zm0-10.5v-3h36v3ZM6 15v-3h36v3Z"/></symbol><symbol id="moon" xmlns="http://www.w3.org/2000/svg"><path d="M24 41q2.8 0 5.8-1.15t5.7-3.4q-4.9-1.7-8.45-4.575-3.55-2.875-5.625-6.65-2.075-3.775-2.65-8.25-.575-4.475.475-9.325-5.55 2.05-8.9 6.325Q7 18.25 7 24q0 7.2 4.9 12.1Q16.8 41 24 41Zm0 3q-4.2 0-7.85-1.55Q12.5 40.9 9.8 38.2q-2.7-2.7-4.25-6.35Q4 28.2 4 24q0-4 1.55-7.625T9.8 10q2.7-2.75 6.3-4.375Q19.7 4 23.8 4q-2.45 4.75-2.3 10.025.15 5.275 2.55 9.7 2.4 4.425 6.8 7.4 4.4 2.975 10.45 3.125-2.6 4.1-7.35 6.925T24 44Zm-2.75-19.7Z"/></symbol><symbol id="notiff-active" xmlns="http://www.w3.org/2000/svg"><path d="M6.2 19.65q0-4.05 1.7-7.675T12.75 5.8l2.05 2.25q-2.65 2.15-4.125 5.175T9.2 19.65Zm32.65 0q0-3.4-1.4-6.425T33.4 8.05l2.05-2.25q3.1 2.6 4.75 6.2t1.65 7.65ZM8 38v-3h4.2V19.7q0-4.1 2.475-7.425T21.2 8.1V6.65q0-1.15.825-1.9T24 4q1.15 0 1.975.75.825.75.825 1.9V8.1q4.05.85 6.55 4.175 2.5 3.325 2.5 7.425V35H40v3Zm16-14.75ZM24 44q-1.6 0-2.8-1.175Q20 41.65 20 40h8q0 1.65-1.175 2.825Q25.65 44 24 44Zm-8.8-9h17.65V19.7q0-3.75-2.55-6.325T24.05 10.8q-3.75 0-6.3 2.575T15.2 19.7Z"/></symbol><symbol id="notiff-inactive" xmlns="http://www.w3.org/2000/svg"><path d="M8 38v-3h4.2V19.7q0-4.2 2.475-7.475Q17.15 8.95 21.2 8.1V6.65q0-1.15.825-1.9T24 4q1.15 0 1.975.75.825.75.825 1.9V8.1q4.05.85 6.55 4.125t2.5 7.475V35H40v3Zm16-14.75ZM24 44q-1.6 0-2.8-1.175Q20 41.65 20 40h8q0 1.65-1.175 2.825Q25.65 44 24 44Zm-8.8-9h17.65V19.7q0-3.7-2.55-6.3-2.55-2.6-6.25-2.6t-6.275 2.6Q15.2 16 15.2 19.7Z"/></symbol><symbol id="notiff-off" xmlns="http://www.w3.org/2000/svg"><path d="M8 38v-3h4.2V19.25q0-1.5.425-2.925Q13.05 14.9 13.8 13.6l2.25 2.25q-.4.85-.625 1.675-.225.825-.225 1.725V35H31L3.75 7.75l2.1-2.1L42.15 42l-2.1 2.1-6.1-6.1Zm27.85-6.6-3-3v-8.7q0-3.75-2.525-6.325T24.1 10.8q-1.75 0-3.35.575T17.8 13.35l-2.15-2.15Q17 9.9 18.375 9.175 19.75 8.45 21.2 8.1V6.8q0-1.15.825-1.975Q22.85 4 24 4q1.15 0 1.975.825.825.825.825 1.975v1.3q3.9.85 6.475 4.1 2.575 3.25 2.575 7.5ZM23.1 27.1ZM24 44q-1.65 0-2.825-1.175Q20 41.65 20 40h8q0 1.65-1.175 2.825Q25.65 44 24 44Zm1.35-23.15Z"/></symbol><symbol id="number" xmlns="http://www.w3.org/2000/svg"><path d="M11 30v-9.6H8V18h5.4v12Zm6.6 0v-5.5q0-.75.475-1.225.475-.475 1.225-.475h4.9v-2.4h-6.6V18h7.3q.75 0 1.225.475.475.475.475 1.225v3.8q0 .75-.475 1.225-.475.475-1.225.475H20v2.4h6.6V30ZM30 30v-2.4h6.6v-2.4H32v-2.4h4.6v-2.4H30V18h7.3q.75 0 1.225.475Q39 18.95 39 19.7v8.6q0 .75-.475 1.225Q38.05 30 37.3 30Z"/></symbol><symbol id="pause" xmlns="http://www.w3.org/2000/svg"><path d="M28.25 38V10H36v28ZM12 38V10h7.75v28Z"/></symbol><symbol id="person" xmlns="http://www.w3.org/2000/svg"><path d="M24 23.95q-3.3 0-5.4-2.1-2.1-2.1-2.1-5.4 0-3.3 2.1-5.4 2.1-2.1 5.4-2.1 3.3 0 5.4 2.1 2.1 2.1 2.1 5.4 0 3.3-2.1 5.4-2.1 2.1-5.4 2.1ZM8 40v-4.7q0-1.9.95-3.25T11.4 30q3.35-1.5 6.425-2.25Q20.9 27 24 27q3.1 0 6.15.775 3.05.775 6.4 2.225 1.55.7 2.5 2.05.95 1.35.95 3.25V40Zm3-3h26v-1.7q0-.8-.475-1.525-.475-.725-1.175-1.075-3.2-1.55-5.85-2.125Q26.85 30 24 30t-5.55.575q-2.7.575-5.85 2.125-.7.35-1.15 1.075Q11 34.5 11 35.3Zm13-16.05q1.95 0 3.225-1.275Q28.5 18.4 28.5 16.45q0-1.95-1.275-3.225Q25.95 11.95 24 11.95q-1.95 0-3.225 1.275Q19.5 14.5 19.5 16.45q0 1.95 1.275 3.225Q22.05 20.95 24 20.95Zm0-4.5ZM24 37Z"/></symbol><symbol id="pets" xmlns="http://www.w3.org/2000/svg"><path d="M8.5 23.75q-1.9 0-3.2-1.3-1.3-1.3-1.3-3.2 0-1.9 1.3-3.2 1.3-1.3 3.2-1.3 1.9 0 3.2 1.3 1.3 1.3 1.3 3.2 0 1.9-1.3 3.2-1.3 1.3-3.2 1.3Zm9.25-8.5q-1.9 0-3.2-1.3-1.3-1.3-1.3-3.2 0-1.9 1.3-3.2 1.3-1.3 3.2-1.3 1.9 0 3.2 1.3 1.3 1.3 1.3 3.2 0 1.9-1.3 3.2-1.3 1.3-3.2 1.3Zm12.5 0q-1.9 0-3.2-1.3-1.3-1.3-1.3-3.2 0-1.9 1.3-3.2 1.3-1.3 3.2-1.3 1.9 0 3.2 1.3 1.3 1.3 1.3 3.2 0 1.9-1.3 3.2-1.3 1.3-3.2 1.3Zm9.25 8.5q-1.9 0-3.2-1.3-1.3-1.3-1.3-3.2 0-1.9 1.3-3.2 1.3-1.3 3.2-1.3 1.9 0 3.2 1.3 1.3 1.3 1.3 3.2 0 1.9-1.3 3.2-1.3 1.3-3.2 1.3Zm-26.2 20.5q-2.1 0-3.45-1.575T8.5 38.95q0-2.1 1.275-3.725T12.5 32.1q1.1-1.1 2.05-2.325.95-1.225 1.8-2.525 1.45-2.2 3.25-4.1 1.8-1.9 4.4-1.9 2.6 0 4.425 1.9 1.825 1.9 3.275 4.15.85 1.3 1.775 2.5.925 1.2 2.025 2.3 1.45 1.5 2.725 3.125Q39.5 36.85 39.5 38.95q0 2.15-1.35 3.725-1.35 1.575-3.45 1.575-2.7 0-5.35-.45-2.65-.45-5.35-.45-2.7 0-5.35.45-2.65.45-5.35.45Z"/></symbol><symbol id="php" xmlns="http://www.w3.org/2000/svg"><path d="M18.9 30V18h2.4v4.45h5.4V18h2.4v12h-2.4v-5.15h-5.4V30ZM6 30V18h7.6q1 0 1.7.7t.7 1.7v3.2q0 1-.7 1.7t-1.7.7H8.4v4Zm2.4-6.4h5.2v-3.2H8.4ZM33 30V18h7.6q1 0 1.7.7t.7 1.7v3.2q0 1-.7 1.7t-1.7.7h-5.2v4Zm2.4-6.4h5.2v-3.2h-5.2Z"/></symbol><symbol id="plant-pot" xmlns="http://www.w3.org/2000/svg"><path d="M15.85 41h16.3l2.4-9.5h-21.1l2.4 9.5Zm0 3q-1 0-1.825-.625T12.95 41.75l-2.6-10.25h27.3l-2.6 10.25q-.25 1-1.075 1.625T32.15 44ZM9 28.5h30v-5H9v5Zm15-12.55q.25-4.35 3.9-8.025Q31.55 4.25 35.95 4q-.15 4.05-3.35 7.525Q29.4 15 25.5 15.75v4.75H42v8q0 1.25-.875 2.125T39 31.5H9q-1.25 0-2.125-.875T6 28.5v-8h16.5v-4.75q-3.9-.75-7.075-4.225Q12.25 8.05 12.05 4q4.4.25 8.075 3.9Q23.8 11.55 24 15.95Z"/></symbol><symbol id="play-circle" xmlns="http://www.w3.org/2000/svg"><path d="M19.15 32.5 32.5 24l-13.35-8.5ZM24 44q-4.1 0-7.75-1.575-3.65-1.575-6.375-4.3-2.725-2.725-4.3-6.375Q4 28.1 4 24q0-4.15 1.575-7.8 1.575-3.65 4.3-6.35 2.725-2.7 6.375-4.275Q19.9 4 24 4q4.15 0 7.8 1.575 3.65 1.575 6.35 4.275 2.7 2.7 4.275 6.35Q44 19.85 44 24q0 4.1-1.575 7.75-1.575 3.65-4.275 6.375t-6.35 4.3Q28.15 44 24 44Zm0-3q7.1 0 12.05-4.975Q41 31.05 41 24q0-7.1-4.95-12.05Q31.1 7 24 7q-7.05 0-12.025 4.95Q7 16.9 7 24q0 7.05 4.975 12.025Q16.95 41 24 41Zm0-17Z"/></symbol><symbol id="play-triangle" xmlns="http://www.w3.org/2000/svg"><path d="M16 37.85v-28l22 14Zm3-14Zm0 8.55 13.45-8.55L19 15.3Z"/></symbol><symbol id="quiz" xmlns="http://www.w3.org/2000/svg"><path d="M27.15 31q.85 0 1.45-.6t.6-1.45q0-.85-.6-1.45t-1.45-.6q-.85 0-1.45.6t-.6 1.45q0 .85.6 1.45t1.45.6Zm-1.25-6.3h2.35q.1-1.45.425-2.15.325-.7 1.625-1.95 1.35-1.3 1.875-2.275.525-.975.525-2.275 0-2.3-1.575-3.75Q29.55 10.85 27 10.85q-1.9 0-3.4 1.025t-2.2 2.875l2.25.95q.55-1.25 1.375-1.9.825-.65 1.975-.65 1.5 0 2.425.85.925.85.925 2.15 0 1-.45 1.75t-1.6 1.6q-1.6 1.45-2 2.325-.4.875-.4 2.875ZM13 38q-1.2 0-2.1-.9-.9-.9-.9-2.1V7q0-1.2.9-2.1.9-.9 2.1-.9h28q1.2 0 2.1.9.9.9.9 2.1v28q0 1.2-.9 2.1-.9.9-2.1.9Zm0-3h28V7H13v28Zm-6 9q-1.2 0-2.1-.9Q4 42.2 4 41V10h3v31h31v3Zm6-37v28V7Z"/></symbol><symbol id="rabbit" xmlns="http://www.w3.org/2000/svg"><path d="M19 44q-3.75 0-6.375-2.625T10 35q0-1.6.725-3.025.725-1.425 2.425-3.125.75-.75 1.2-1.25.45-.5.95-1.1-2.55-3.9-3.925-8.175T10 10q0-2.9 1.05-4.45Q12.1 4 14 4q2.1 0 4.35 2.05Q20.6 8.1 22.3 11.5q.5 1 .925 2.075.425 1.075.775 2.375.35-1.3.775-2.375.425-1.075.925-2.075 1.7-3.4 3.95-5.45Q31.9 4 34 4q1.9 0 2.95 1.55Q38 7.1 38 10q0 4.05-1.375 8.325Q35.25 22.6 32.7 26.5q.5.6.95 1.1.45.5 1.2 1.25 1.7 1.7 2.425 3.125Q38 33.4 38 35q0 3.75-2.625 6.375T29 44q-2.25 0-3.625-.5L24 43l-1.375.5Q21.25 44 19 44Zm0-3q.85 0 2-.275t2.45-.825q-.55-.25-1-.85Q22 38.45 22 38q0-.4.575-.7Q23.15 37 24 37q.85 0 1.425.3.575.3.575.7 0 .45-.45 1.05-.45.6-1 .85 1.3.55 2.45.825Q28.15 41 29 41q2.5 0 4.25-1.75T35 35q0-1.1-.6-2.15-.6-1.05-1.75-2.05-.55-.5-1.225-1.2T30.2 28.2q-1.6-2.1-2.75-2.65Q26.3 25 24 25q-2.3 0-3.45.55-1.15.55-2.75 2.65-.55.7-1.225 1.4t-1.225 1.2q-1.15 1-1.75 2.05Q13 33.9 13 35q0 2.5 1.75 4.25T19 41Zm2-7.5q-.4 0-.7-.45Q20 32.6 20 32q0-.6.3-1.05.3-.45.7-.45.4 0 .7.45.3.45.3 1.05 0 .6-.3 1.05-.3.45-.7.45Zm6 0q-.4 0-.7-.45Q26 32.6 26 32q0-.6.3-1.05.3-.45.7-.45.4 0 .7.45.3.45.3 1.05 0 .6-.3 1.05-.3.45-.7.45Zm-9.65-9.35q1.05-1 2.075-1.475 1.025-.475 2.525-.625-.25-2.55-.85-4.975t-1.55-4.325Q18.4 10.4 16.9 8.825 15.4 7.25 13.75 6.7q-.4.75-.575 1.6Q13 9.15 13 10q0 3.6 1.125 7.225 1.125 3.625 3.225 6.925Zm13.3 0q2.1-3.3 3.225-6.925T35 10q0-.85-.175-1.7t-.575-1.6q-1.65.55-3.15 2.125t-2.65 3.925q-.95 1.9-1.55 4.325-.6 2.425-.85 4.975 1.5.15 2.525.625t2.075 1.475Z"/></symbol><symbol id="rain" xmlns="http://www.w3.org/2000/svg"><path d="M27.9 43.85q-.55.25-1.175.05t-.875-.75l-3.45-6.9q-.25-.55-.075-1.175t.725-.875q.55-.25 1.175-.05t.875.75l3.45 6.9q.25.55.075 1.175t-.725.875Zm12-.05q-.55.25-1.175.05t-.875-.75l-3.45-6.9q-.25-.55-.075-1.175t.725-.875q.55-.25 1.175-.05t.875.75l3.45 6.9q.25.55.075 1.175t-.725.875Zm-24 0q-.55.25-1.175.075t-.875-.725l-3.45-6.9q-.25-.55-.05-1.175t.75-.875q.55-.25 1.175-.075t.875.725l3.45 6.95q.25.55.05 1.15-.2.6-.75.85ZM14.5 31q-4.35 0-7.425-3.075T4 20.5q0-3.95 2.825-7.05 2.825-3.1 7.025-3.4 1.6-2.8 4.225-4.425Q20.7 4 24 4q4.55 0 7.625 2.875T35.4 14q3.95.2 6.275 2.675Q44 19.15 44 22.5q0 3.5-2.475 6T35.5 31Zm0-3h21q2.3 0 3.9-1.625T41 22.5q0-2.3-1.6-3.9T35.5 17h-3v-1.5q0-3.55-2.475-6.025Q27.55 7 24 7q-2.55 0-4.675 1.375T16.2 12.1l-.4.9h-1.4q-3.1.1-5.25 2.275T7 20.5q0 3.1 2.2 5.3 2.2 2.2 5.3 2.2ZM24 17.5Z"/></symbol><symbol id="recycling" xmlns="http://www.w3.org/2000/svg"><path d="m18.4 18.4 4.45-7.35-2.95-4.9q-.6-1-1.725-1t-1.725 1l-4.9 8.15ZM37.75 32l-4.45-7.4 6.95-4 3.2 5.35q.55.85.575 1.925.025 1.075-.425 1.925-.5 1-1.475 1.6-.975.6-2.125.6ZM32 46l-8-8 8-8v4h9.5l-2.9 5.8q-.55 1-1.5 1.6-.95.6-2.1.6h-3Zm-19.35-4q-1 0-1.825-.525T9.6 40.1q-.4-.8-.375-1.675.025-.875.475-1.625l1.7-2.8H20v8ZM7.7 36.3l-3.25-6.5q-.45-.9-.425-1.925.025-1.025.575-1.925l.8-1.35L2 22.55l10.95-2.75 2.75 11-3.45-2.1Zm27-17.1-10.95-2.75 3.45-2.05L20.95 4H28q1.05 0 1.975.525T31.45 5.95l2.6 4.35 3.4-2.1Z"/></symbol><symbol id="refresh" xmlns="http://www.w3.org/2000/svg"><path d="M24 40q-6.65 0-11.325-4.675Q8 30.65 8 24q0-6.65 4.675-11.325Q17.35 8 24 8q4.25 0 7.45 1.725T37 14.45V8h3v12.7H27.3v-3h8.4q-1.9-3-4.85-4.85Q27.9 11 24 11q-5.45 0-9.225 3.775Q11 18.55 11 24q0 5.45 3.775 9.225Q18.55 37 24 37q4.15 0 7.6-2.375 3.45-2.375 4.8-6.275h3.1q-1.45 5.25-5.75 8.45Q29.45 40 24 40Z"/></symbol><symbol id="sd" xmlns="http://www.w3.org/2000/svg"><path d="M7 40q-1.2 0-2.1-.9Q4 38.2 4 37V11q0-1.2.9-2.1Q5.8 8 7 8h34q1.2 0 2.1.9.9.9.9 2.1v26q0 1.2-.9 2.1-.9.9-2.1.9Zm0-3h34V11H7v26Zm6.65-6.85H20q.7 0 1.35-.475Q22 29.2 22 28.5v-3.65q0-.7-.65-1.175Q20.7 23.2 20 23.2h-5.5v-2.85h5v.85H22v-1.65q0-.7-.65-1.2t-1.35-.5h-6.35q-.7 0-1.175.5-.475.5-.475 1.2v3.65q0 .7.475 1.175.475.475 1.175.475h5.85v2.8h-5v-.8H12v1.65q0 .7.475 1.175.475.475 1.175.475Zm12.35 0h7.5q1 0 1.75-.75t.75-1.75v-7.3q0-1-.75-1.75t-1.75-.75H26Zm2.5-2.5v-7.3h5v7.3ZM7 37V11v26Z"/></symbol><symbol id="search" xmlns="http://www.w3.org/2000/svg"><path d="M39.8 41.95 26.65 28.8q-1.5 1.3-3.5 2.025-2 .725-4.25.725-5.4 0-9.15-3.75T6 18.75q0-5.3 3.75-9.05 3.75-3.75 9.1-3.75 5.3 0 9.025 3.75 3.725 3.75 3.725 9.05 0 2.15-.7 4.15-.7 2-2.1 3.75L42 39.75Zm-20.95-13.4q4.05 0 6.9-2.875Q28.6 22.8 28.6 18.75t-2.85-6.925Q22.9 8.95 18.85 8.95q-4.1 0-6.975 2.875T9 18.75q0 4.05 2.875 6.925t6.975 2.875Z"/></symbol><symbol id="settings" xmlns="http://www.w3.org/2000/svg"><path d="m19.4 44-1-6.3q-.95-.35-2-.95t-1.85-1.25l-5.9 2.7L4 30l5.4-3.95q-.1-.45-.125-1.025Q9.25 24.45 9.25 24q0-.45.025-1.025T9.4 21.95L4 18l4.65-8.2 5.9 2.7q.8-.65 1.85-1.25t2-.9l1-6.35h9.2l1 6.3q.95.35 2.025.925Q32.7 11.8 33.45 12.5l5.9-2.7L44 18l-5.4 3.85q.1.5.125 1.075.025.575.025 1.075t-.025 1.05q-.025.55-.125 1.05L44 30l-4.65 8.2-5.9-2.7q-.8.65-1.825 1.275-1.025.625-2.025.925l-1 6.3ZM24 30.5q2.7 0 4.6-1.9 1.9-1.9 1.9-4.6 0-2.7-1.9-4.6-1.9-1.9-4.6-1.9-2.7 0-4.6 1.9-1.9 1.9-1.9 4.6 0 2.7 1.9 4.6 1.9 1.9 4.6 1.9Zm0-3q-1.45 0-2.475-1.025Q20.5 25.45 20.5 24q0-1.45 1.025-2.475Q22.55 20.5 24 20.5q1.45 0 2.475 1.025Q27.5 22.55 27.5 24q0 1.45-1.025 2.475Q25.45 27.5 24 27.5Zm0-3.5Zm-2.2 17h4.4l.7-5.6q1.65-.4 3.125-1.25T32.7 32.1l5.3 2.3 2-3.6-4.7-3.45q.2-.85.325-1.675.125-.825.125-1.675 0-.85-.1-1.675-.1-.825-.35-1.675L40 17.2l-2-3.6-5.3 2.3q-1.15-1.3-2.6-2.175-1.45-.875-3.2-1.125L26.2 7h-4.4l-.7 5.6q-1.7.35-3.175 1.2-1.475.85-2.625 2.1L10 13.6l-2 3.6 4.7 3.45q-.2.85-.325 1.675-.125.825-.125 1.675 0 .85.125 1.675.125.825.325 1.675L8 30.8l2 3.6 5.3-2.3q1.2 1.2 2.675 2.05Q19.45 35 21.1 35.4Z"/></symbol><symbol id="skip-next" xmlns="http://www.w3.org/2000/svg"><path d="M34 36V12h3v24Zm-23 0V12l17.3 12Zm3-12Zm0 6.25L23.05 24 14 17.75Z"/></symbol><symbol id="skip-prev" xmlns="http://www.w3.org/2000/svg"><path d="M11 36V12h3v24Zm26 0L19.7 24 37 12Zm-3-12Zm0 6.25v-12.5L24.95 24Z"/></symbol><symbol id="sort" xmlns="http://www.w3.org/2000/svg"><path d="M6 36v-3h12v3Zm0-10.5v-3h24v3ZM6 15v-3h36v3Z"/></symbol><symbol id="stop-circle" xmlns="http://www.w3.org/2000/svg"><path d="M16.5 31.5h15v-15h-15ZM24 44q-4.1 0-7.75-1.575-3.65-1.575-6.375-4.3-2.725-2.725-4.3-6.375Q4 28.1 4 23.95q0-4.1 1.575-7.75 1.575-3.65 4.3-6.35 2.725-2.7 6.375-4.275Q19.9 4 24.05 4q4.1 0 7.75 1.575 3.65 1.575 6.35 4.275 2.7 2.7 4.275 6.35Q44 19.85 44 24q0 4.1-1.575 7.75-1.575 3.65-4.275 6.375t-6.35 4.3Q28.15 44 24 44Zm.05-3q7.05 0 12-4.975T41 23.95q0-7.05-4.95-12T24 7q-7.05 0-12.025 4.95Q7 16.9 7 24q0 7.05 4.975 12.025Q16.95 41 24.05 41ZM24 24Z"/></symbol><symbol id="stop-line" xmlns="http://www.w3.org/2000/svg"><path d="M15 15v18Zm-3 21V12h24v24Zm3-3h18V15H15Z"/></symbol><symbol id="sunny" xmlns="http://www.w3.org/2000/svg"><path d="M24 9.5q-.65 0-1.075-.425Q22.5 8.65 22.5 8V3.5q0-.65.425-1.075Q23.35 2 24 2q.65 0 1.075.425.425.425.425 1.075V8q0 .65-.425 1.075Q24.65 9.5 24 9.5Zm10.25 4.25q-.45-.45-.45-1.05 0-.6.45-1.05l3.15-3.2Q37.85 8 38.475 8t1.075.45Q40 8.9 40 9.5q0 .6-.45 1.05l-3.2 3.2q-.45.45-1.05.45-.6 0-1.05-.45ZM40 25.5q-.65 0-1.075-.425Q38.5 24.65 38.5 24q0-.65.425-1.075Q39.35 22.5 40 22.5h4.5q.65 0 1.075.425Q46 23.35 46 24q0 .65-.425 1.075-.425.425-1.075.425ZM24 46q-.65 0-1.075-.425-.425-.425-.425-1.075V40q0-.65.425-1.075Q23.35 38.5 24 38.5q.65 0 1.075.425.425.425.425 1.075v4.5q0 .65-.425 1.075Q24.65 46 24 46ZM11.65 13.75l-3.2-3.15Q8 10.15 8 9.525t.45-1.075Q8.9 8 9.5 8q.6 0 1.05.45l3.2 3.2q.45.45.45 1.05 0 .6-.45 1.05-.45.4-1.075.4t-1.025-.4Zm25.8 25.8-3.2-3.2q-.45-.45-.45-1.05 0-.6.45-1.05.4-.4 1.025-.4.625 0 1.075.4l3.25 3.15q.45.45.425 1.075Q40 39.1 39.6 39.55q-.45.45-1.075.45t-1.075-.45ZM3.5 25.5q-.65 0-1.075-.425Q2 24.65 2 24q0-.65.425-1.075Q2.85 22.5 3.5 22.5H8q.65 0 1.075.425Q9.5 23.35 9.5 24q0 .65-.425 1.075Q8.65 25.5 8 25.5Zm4.95 14.05Q8 39.1 8 38.5q0-.6.45-1.05l3.2-3.2q.4-.4 1.025-.4.625 0 1.075.4.45.45.45 1.075t-.45 1.075l-3.15 3.15q-.45.45-1.075.45t-1.075-.45ZM24 36q-5 0-8.5-3.5T12 24q0-5 3.5-8.5T24 12q5 0 8.5 3.5T36 24q0 5-3.5 8.5T24 36Zm0-3q3.75 0 6.375-2.625T33 24q0-3.75-2.625-6.375T24 15q-3.75 0-6.375 2.625T15 24q0 3.75 2.625 6.375T24 33Z"/></symbol><symbol id="tea" xmlns="http://www.w3.org/2000/svg"><path d="M8 42v-3h31.95v3Zm7.55-6q-3.15 0-5.35-2.175Q8 31.65 8 28.5V6h33q1.2 0 2.1.9.9.9.9 2.1v8q0 1.2-.9 2.1-.9.9-2.1.9h-4.8v8.5q0 3.15-2.175 5.325Q31.85 36 28.65 36ZM36.2 17H41V9h-4.8ZM15.55 33h13.1q1.8 0 3.175-1.375Q33.2 30.25 33.2 28.5V9H19.85v1.65l3.55 2.9q.05.05.45.9v7.5q0 .5-.35.85t-.9.35h-7.55q-.55 0-.9-.35t-.35-.85v-7.5q0-.25.45-.9l3.6-2.9V9H11v19.5q0 1.75 1.4 3.125T15.55 33Zm6.55-12ZM17.85 9h2Z"/></symbol><symbol id="terminal" xmlns="http://www.w3.org/2000/svg"><path d="M7 40q-1.2 0-2.1-.9Q4 38.2 4 37V11q0-1.2.9-2.1Q5.8 8 7 8h34q1.2 0 2.1.9.9.9.9 2.1v26q0 1.2-.9 2.1-.9.9-2.1.9Zm0-3h34V15.2H7V37Zm8-3.6-2.1-2.1 5.15-5.2-5.2-5.2L15 18.8l7.3 7.3Zm9.5.2v-3h11v3Z"/></symbol><symbol id="thunder" xmlns="http://www.w3.org/2000/svg"><path d="m23.75 48 4.85-5.5-4-2 5.65-6.5h4l-4.85 5.5 4 2-5.65 6.5Zm-12 0 4.85-5.5-4-2 5.65-6.5h4l-4.85 5.5 4 2-5.65 6.5Zm2.75-17q-4.35 0-7.425-3.075T4 20.5q0-3.95 2.825-7.05 2.825-3.1 7.025-3.4 1.6-2.8 4.225-4.425Q20.7 4 24 4q4.55 0 7.625 2.875T35.4 14q3.95.2 6.275 2.675Q44 19.15 44 22.5q0 3.5-2.475 6T35.5 31Zm0-3h21q2.3 0 3.9-1.625T41 22.45q0-2.25-1.6-3.85T35.5 17h-3v-1.5q0-3.55-2.475-6.025Q27.55 7 24 7q-2.55 0-4.675 1.375T16.2 12.1l-.4.9h-1.4q-3.1.1-5.25 2.275T7 20.5q0 3.1 2.2 5.3 2.2 2.2 5.3 2.2ZM24 17.5Z"/></symbol><symbol id="toggle" xmlns="http://www.w3.org/2000/svg"><path d="M14 36q-5 0-8.5-3.5T2 24q0-5 3.5-8.5T14 12h20q5 0 8.5 3.5T46 24q0 5-3.5 8.5T34 36Zm0-3h20q3.75 0 6.375-2.625T43 24q0-3.75-2.625-6.375T34 15H14q-3.75 0-6.375 2.625T5 24q0 3.75 2.625 6.375T14 33Zm20.05-3.95q2.1 0 3.575-1.475T39.1 24q0-2.1-1.475-3.575T34.05 18.95q-2.1 0-3.575 1.475T29 24q0 2.1 1.475 3.575t3.575 1.475ZM24 24Z"/></symbol><symbol id="tsunami" xmlns="http://www.w3.org/2000/svg"><path d="M4 42v-3q1.75-.1 3.4-.75t3.25-1.85q1.55 1.2 3.275 1.875 1.725.675 3.425.675 1.6 0 3.425-.675Q22.6 37.6 24.05 36.4q1.65 1.35 3.325 1.95 1.675.6 3.375.6 1.65 0 3.25-.65t3.45-1.95q1.75 1.3 3.425 1.925Q42.55 38.9 44 39v3q-1.5-.1-3.3-.6-1.8-.5-3.25-1.35-1.7 1-3.4 1.475-1.7.475-3.3.475-1.6 0-3.3-.475-1.7-.475-3.4-1.475-1.55 1-3.275 1.475Q19.05 42 17.35 42q-1.65 0-3.35-.475-1.7-.475-3.35-1.475-1.45.85-3.275 1.35Q5.55 41.9 4 42Zm0-9.5V29q0-4.75 1.925-8.925 1.925-4.175 5.2-7.3 3.275-3.125 7.65-4.95Q23.15 6 28 6q1.4 0 2.825.125 1.425.125 2.575.375-.95 1.55-1.425 3.225Q31.5 11.4 31.5 12.85q0 2.95 2.1 5.3 2.1 2.35 5.05 2.35H44v3h-5.35q-4.25 0-7.2-3.2t-2.95-7.45q0-.7.175-1.65t.425-2.05q-4.25 1-6.925 4.4Q19.5 16.95 19.5 21q0 1.9.675 3.7.675 1.8 1.925 3.5.5-.35.975-.65.475-.3.925-.65 1.55 1.25 3.375 1.9 1.825.65 3.375.65 1.5 0 3.325-.675Q35.9 28.1 37.45 26.9q1.45 1.1 3.15 1.8t3.4.8v3q-1.5-.1-3.3-.6-1.8-.5-3.25-1.35-1.7 1-3.325 1.475-1.625.475-3.375.475t-3.55-.55q-1.8-.55-3.15-1.4-1.6 1-3.3 1.45-1.7.45-3.4.5-1.6 0-3.375-.525T10.65 30.55q-1.45.85-3.275 1.35-1.825.5-3.375.6Zm13.25-3.05q.3 0 .8-.05t1.05-.1q-1.25-2.05-1.925-4.125T16.5 21q0-3.1 1.3-5.975 1.3-2.875 3.55-4.925Q14.6 12.35 11 17.375 7.4 22.4 7 28.9q1.15-.65 2.05-1.075.9-.425 1.6-.975 1.8 1.3 3.325 1.95 1.525.65 3.275.65Zm-3.1-9.65Z"/></symbol><symbol id="upload" xmlns="http://www.w3.org/2000/svg"><path d="M11 40q-1.2 0-2.1-.9Q8 38.2 8 37v-7.15h3V37h26v-7.15h3V37q0 1.2-.9 2.1-.9.9-2.1.9Zm11.5-7.65V13.8l-6 6-2.15-2.15L24 8l9.65 9.65-2.15 2.15-6-6v18.55Z"/></symbol><symbol id="warning" xmlns="http://www.w3.org/2000/svg"><path d="M2 42 24 4l22 38Zm5.2-3h33.6L24 10Zm17-2.85q.65 0 1.075-.425.425-.425.425-1.075 0-.65-.425-1.075-.425-.425-1.075-.425-.65 0-1.075.425Q22.7 34 22.7 34.65q0 .65.425 1.075.425.425 1.075.425Zm-1.5-5.55h3V19.4h-3Zm1.3-6.1Z"/></symbol><symbol id="water" xmlns="http://www.w3.org/2000/svg"><path d="M23.95 37.6q.8 0 1.225-.275.425-.275.425-.825 0-.55-.425-.85-.425-.3-1.275-.3-2.1 0-4.275-1.325Q17.45 32.7 16.85 29.35q-.1-.45-.45-.725-.35-.275-.75-.275-.55 0-.85.425-.3.425-.2.875.75 4.2 3.55 6.075t5.8 1.875ZM24 44q-6.85 0-11.425-4.7Q8 34.6 8 27.6q0-5 3.975-10.875T24 4q8.05 6.85 12.025 12.725Q40 22.6 40 27.6q0 7-4.575 11.7Q30.85 44 24 44Zm0-3q5.6 0 9.3-3.825Q37 33.35 37 27.6q0-3.95-3.325-8.975Q30.35 13.6 24 8q-6.35 5.6-9.675 10.625Q11 23.65 11 27.6q0 5.75 3.7 9.575Q18.4 41 24 41Zm0-17Z"/></symbol><symbol id="wind-power" xmlns="http://www.w3.org/2000/svg"><path d="M21.5 46q0-1.25.875-2.125T24.5 43V31.75q-.75-.2-1.4-.525-.65-.325-1.2-.875l-4.4 2.75q-.7.45-1.525.55-.825.1-1.675-.15l-9-2.55q-1.45-.4-2.375-1.625T2 26.55q0-1.9 1.325-3.225Q4.65 22 6.55 22H21.6q.5-.55 1.1-.95.6-.4 1.3-.65v-6.85q0-.85.325-1.6.325-.75.925-1.3l6.85-6.4q1.15-1.1 2.675-1.275Q36.3 2.8 37.6 3.65q1.6 1 2.075 2.825Q40.15 8.3 39.15 9.9l-8 13.1q.4.65.575 1.35.175.7.225 1.45l5.4 1.3q.85.2 1.475.7.625.5 1.025 1.2l4.55 8.2q.75 1.35.55 2.85-.2 1.5-1.3 2.6Q42.3 44 40.425 44T37.2 42.65l-9.7-9.7V43q1.25 0 2.125.875T30.5 46ZM8 9.5v-3h12v3Zm19 3.6v7.05q.55.1 1.075.3.525.2.975.45L36.6 8.3q.35-.55.175-1.2-.175-.65-.775-.95-.45-.25-.975-.175-.525.075-.875.425ZM2 17.5v-3h10v3ZM26 29q1.3 0 2.15-.875Q29 27.25 29 26q0-1.3-.85-2.15Q27.3 23 26 23q-1.25 0-2.125.85T23 26q0 1.25.875 2.125T26 29Zm-10.4 1.8 4.75-2.9q-.25-.7-.275-1.45-.025-.75.075-1.45H6.55q-.65 0-1.1.45-.45.45-.45 1.1 0 .55.3.95.3.4.8.55Zm21.45-.75-5.75-1.3q-.3.6-.75 1.125t-1 .925l9.8 9.75q.45.45 1.1.45.65 0 1.1-.45.4-.4.475-.9.075-.5-.175-.95ZM6 41.5v-3h10v3ZM26 26Zm3.05-5.1Zm.5 9.9Zm-9.4-5.8Z"/></symbol></svg>